<?xml version="1.0" encoding="utf-8"?>
<!-- Generator: Adobe Illustrator 24.3.0, SVG Export Plug-In . SVG Version: 6.00 Build 0)  -->
<svg version="1.1" id="Layer_1" xmlns="http://www.w3.org/2000/svg" xmlns:xlink="http://www.w3.org/1999/xlink" x="0px" y="0px"
	 viewBox="0 0 42.9 52.3" style="enable-background:new 0 0 42.9 52.3;" xml:space="preserve">
<style type="text/css">
	.st0{fill:#685447;}
	.st1{fill:#F1E6B8;}
	.st2{fill:#966852;}
	.st3{fill:#F1E3B6;}
</style>
<g id="XMLID_1_">
	<g>
		<path class="st0" d="M27.9,35.4c4.8,1.3,8,3.9,8.1,6.8c0,4.3-6.9,7.8-15.7,7.8S4.6,46.6,4.6,42.2c0-2.9,3.2-5.5,8-6.8l7.6,7.6
			L27.9,35.4z"/>
	</g>
	<g>
	</g>
</g>
<path class="st1" d="M69.1,53.9c-3.9-4.3-5-10.4-2.7-15.9c2.3-5.4,7.2-8.8,13.1-9.1c0.6,0,1.1,0,1.7,0c5.9,0.3,10.8,3.7,13.1,9.1
	s1.2,11.5-2.7,15.9L80.3,66.4L69.1,53.9z"/>
<path class="st1" d="M101,109.6c0.6,0.9,1.6,1.4,2.6,1.4h0.4c1.1,0,2.1-0.6,2.6-1.5c0.6-0.9,0.7-2,0.2-3l-2.2-4.8
	c-0.9-1.8-2.8-3.1-4.8-3.1s-4,1.2-4.8,3.1l-2.2,4.8c-0.4,1-0.4,2.1,0.2,3c0.6,0.9,1.6,1.5,2.6,1.5H96c1.1,0,2-0.5,2.6-1.4
	c0.3-0.4,0.7-0.6,1.2-0.6S100.7,109.2,101,109.6z"/>
<path class="st1" d="M99.8,95.3c1.8,0,3.4-1.5,3.4-3.4s-1.5-3.4-3.4-3.4c-1.8,0-3.4,1.5-3.4,3.4C96.5,93.8,98,95.3,99.8,95.3z"/>
<path class="st1" d="M93.7,97.5c0-1.8-1.5-3.4-3.4-3.4c-1.8,0-3.4,1.5-3.4,3.4c0,1.8,1.5,3.4,3.4,3.4
	C92.2,100.9,93.7,99.4,93.7,97.5z"/>
<path class="st1" d="M109.3,100.9c1.8,0,3.4-1.5,3.4-3.4c0-1.9-1.5-3.4-3.4-3.4c-1.8,0-3.4,1.5-3.4,3.4
	C106,99.4,107.5,100.9,109.3,100.9z"/>
<image style="overflow:visible;enable-background:new    ;" width="732" height="717" xlink:href="logo.png"  transform="matrix(0.1643 0 0 0.1835 -129.1994 -51.2979)">
</image>
<path class="st0" d="M51.6,99.8c-7.9,0-13.4-3-13.4-5.6c0-1.9,2.9-4,7.4-5l5.1,5.7c0.2,0.2,0.5,0.4,0.8,0.4s0.6-0.1,0.8-0.4l5.1-5.7
	c4.6,1,7.4,3.1,7.4,5C65,96.8,59.5,99.8,51.6,99.8z"/>
<path class="st2" d="M28,35.9l5.2-5.8c4.5-5,5.7-12,3.1-18.2C33.7,5.7,28,1.7,21.3,1.4c-0.6,0-1.2,0-1.8,0C12.7,1.6,7,5.7,4.4,11.9
	S2.9,25.1,7.5,30.1l5.2,5.8l7.6,7.3L28,35.9z"/>
<g>
	<path class="st3" d="M13.2,13.9c0,0-5.1-1.2-4.8,4.2c0,0,0.2,4.6,4,5.6c0.4,0.1,0.6,0.6,0.3,0.9c-0.7,0.9-1.6,2.7-0.1,4.8
		c2.3,3,6.4,0.8,6.4,0.8s1.6-1.3,3.9,0.2s5,0.1,5,0.1S28.6,30,29,29c0.6-1.4,0.4-3-0.6-4.2l0,0c-0.2-0.3-0.1-0.7,0.2-0.9
		c1.7-0.8,5.8-3.6,3.8-8.3c-0.3-0.7-0.9-1.3-1.6-1.5c-0.6-0.2-1.4-0.3-2.5,0c0,0,0.3-5.6-3-5.9c-3.4-0.3-4.6,3.2-4.6,3.2
		s-2-4-5.1-3.1S13.2,13.9,13.2,13.9z"/>
	<g>
		<path class="st0" d="M17.9,20.4l-0.8,2.4c-0.3,0.8-0.7,1.5-1.3,2.1l-1.4,1.3c-0.4,0.4-0.4,1.1,0,1.5l0,0c1,1,2.4,1.3,3.6,0.9
			c0.3-0.1,0.5-0.2,0.8-0.3c1.3-0.4,2.8-0.4,4.1,0.1l0.3,0.1c1.3,0.5,2.7,0.2,3.6-0.7l0.1-0.1c0.5-0.4,0.5-1.2,0-1.7L25.7,25
			c-0.7-0.7-1.2-1.5-1.5-2.4l-0.6-2.1l0,0c-0.1-0.2-0.2-0.4-0.3-0.6c-0.5-0.7-1.4-1-2.2-1h-0.5c-0.6,0-1.4,0.2-1.9,0.6
			C18.3,19.7,18.1,20,17.9,20.4L17.9,20.4z"/>
		<ellipse transform="matrix(0.8485 -0.5292 0.5292 0.8485 -8.1604 9.6822)" class="st0" cx="12.8" cy="19.1" rx="1.9" ry="3.2"/>
		<ellipse transform="matrix(0.9457 -0.3251 0.3251 0.9457 -3.4514 6.3773)" class="st0" cx="17.4" cy="13.5" rx="1.9" ry="3.2"/>
		<ellipse transform="matrix(0.332 -0.9433 0.9433 0.332 3.5525 31.9743)" class="st0" cx="24.4" cy="13.5" rx="3.2" ry="1.9"/>
		<ellipse transform="matrix(0.4259 -0.9048 0.9048 0.4259 -0.8049 36.9211)" class="st0" cx="28.7" cy="19.1" rx="3.2" ry="1.9"/>
	</g>
</g>
</svg>
