<?xml version="1.0" encoding="utf-8"?>
<!-- Generator: Adobe Illustrator 24.3.0, SVG Export Plug-In . SVG Version: 6.00 Build 0)  -->
<svg version="1.1" id="Layer_1" xmlns="http://www.w3.org/2000/svg" xmlns:xlink="http://www.w3.org/1999/xlink" x="0px" y="0px"
	 viewBox="0 0 100 100" style="enable-background:new 0 0 100 100;" xml:space="preserve">
<style type="text/css">
	.st0{fill:none;stroke:#000000;stroke-width:4;stroke-miterlimit:10;}
</style>
<path d="M31.3,54.7c-7-7.8-8.8-18.7-4.8-28.4c4.1-9.7,12.9-15.8,23.4-16.3c1,0,2,0,3,0c10.6,0.5,19.3,6.6,23.4,16.3
	s2.2,20.6-4.8,28.4L51.4,77L31.3,54.7z M65.1,67.7l9.3-10.3c8.1-9,10.2-21.4,5.5-32.6C75.3,13.8,65,6.6,53.1,6c-1.1,0-2.2,0-3.3,0
	c-12,0.5-22.3,7.7-26.9,18.8c-4.7,11.1-2.6,23.6,5.5,32.6l9.3,10.4c-8.6,2.3-14.3,6.9-14.3,12.2c0,7.8,12.3,14,28,14s28-6.2,28-14
	C79.4,74.7,73.7,70.1,65.1,67.7z M51.4,90c-14.1,0-24-5.3-24-10c0-3.4,5.1-7.1,13.3-8.9l9.2,10.2c0.4,0.4,0.9,0.7,1.5,0.7
	s1.1-0.2,1.5-0.7l9.2-10.2c8.2,1.8,13.3,5.5,13.3,8.9C75.4,84.7,65.5,90,51.4,90z"/>
<path class="st0" d="M53.5,55.9c1,1.6,2.8,2.5,4.7,2.5H59c1.9,0,3.7-1,4.7-2.6c1-1.6,1.2-3.6,0.3-5.4l-4-8.5c-1.6-3.3-5-5.5-8.6-5.5
	s-7.1,2.2-8.6,5.5l-4,8.5c-0.8,1.8-0.7,3.8,0.3,5.4c1,1.6,2.8,2.6,4.7,2.6h0.8c1.9,0,3.6-0.9,4.7-2.5c0.5-0.7,1.2-1.1,2.1-1.1
	S53,55.2,53.5,55.9z"/>
<path class="st0" d="M51.4,30.4c3.3,0,6-2.7,6-6s-2.7-6-6-6s-6,2.7-6,6S48.1,30.4,51.4,30.4z"/>
<path class="st0" d="M40.4,34.4c0-3.3-2.7-6-6-6s-6,2.7-6,6s2.7,6,6,6S40.4,37.7,40.4,34.4z"/>
<path class="st0" d="M68.4,40.4c3.3,0,6-2.7,6-6s-2.7-6-6-6s-6,2.7-6,6S65.1,40.4,68.4,40.4z"/>
</svg>
