<?xml version="1.0" encoding="utf-8"?>
<!-- Generator: Adobe Illustrator 24.3.0, SVG Export Plug-In . SVG Version: 6.00 Build 0)  -->
<svg version="1.1" id="Layer_1" xmlns="http://www.w3.org/2000/svg" xmlns:xlink="http://www.w3.org/1999/xlink" x="0px" y="0px"
	 viewBox="0 0 100 100" style="enable-background:new 0 0 100 100;" xml:space="preserve">
<style type="text/css">
	.st0{fill:#351C11;}
</style>
<path class="st0" d="M62.3,92.6l1-5.9c1.2-0.4,2.5-1,3.5-1.4l4.9,3.5c3.3,2.3,7.8,1.8,10.7-1l5.3-5.3c2.9-2.9,3.3-7.4,0.8-10.7
	l-3.3-4.9c0.6-1.2,1-2.3,1.4-3.5l5.9-1c3.9-0.8,6.8-4.1,6.8-8.2v-7.6c0-4.1-2.9-7.4-6.8-8.2l-5.9-1c-0.4-1.2-1-2.5-1.4-3.5l3.5-4.9
	c2.3-3.3,1.8-7.8-1-10.7l-5.5-5.3c-2.9-2.9-7.4-3.3-10.7-0.8l-4.9,3.3c-1.2-0.6-2.3-1-3.5-1.4l-1-5.9c-0.8-3.9-4.1-7-8.2-6.8h-7.8
	c-4.1,0-7.4,2.9-8.2,7l-1,5.9c-1.2,0.4-2.5,0.8-3.5,1.4l-4.9-3.5c-3.3-2.3-7.8-1.8-10.7,1l-5.3,5.5c-2.9,2.9-3.3,7.4-0.8,10.7
	l3.5,4.9c-0.6,1.2-1,2.3-1.4,3.5l-5.9,1C3.9,39.5,1,42.8,1,46.9v7.6c0,4.1,2.9,7.4,6.8,8.2l5.9,1c0.4,1.2,1,2.3,1.4,3.5l-3.5,4.9
	c-2.3,3.3-1.8,7.8,1,10.7l5.5,5.3c2.9,2.9,7.4,3.3,10.7,0.8l4.9-3.5c1.2,0.6,2.3,1,3.5,1.4l1,5.9c0.8,3.9,4.1,6.8,8.2,6.8l0,0h7.6
	C58.2,99.6,61.7,96.7,62.3,92.6z M46.5,91.4l-1.4-8.2c-0.2-1.6-1.4-2.9-2.9-3.3c-2.3-0.6-4.5-1.6-6.6-2.7c-1.4-0.8-3.1-0.6-4.3,0.2
	l-7,4.9l-5.5-5.5l4.7-7c1-1.2,1-3.1,0.2-4.5c-1.2-2-2-4.3-2.7-6.6c-0.4-1.6-1.8-2.7-3.3-2.9l-8.6-1.4v-7.8l8.2-1.4
	c1.6-0.2,2.9-1.4,3.3-2.9c0.6-2.3,1.6-4.5,2.7-6.6c0.8-1.4,0.6-3.1-0.2-4.3l-4.9-7l5.5-5.5l7,4.7c1.2,1,3.1,1,4.5,0.2
	c2-1.2,4.3-2,6.6-2.7c1.6-0.4,2.7-1.6,2.9-3.3l1.4-8.6h7.8l1.4,8.2c0.2,1.6,1.4,2.9,2.9,3.3c2.3,0.6,4.5,1.6,6.6,2.7
	c1.4,0.8,3.1,0.6,4.3-0.2l7-4.9l5.5,5.5l-4.7,6.8c-1,1.2-1,3.1-0.2,4.5c1.2,2,2,4.3,2.7,6.6c0.4,1.6,1.8,2.7,3.3,2.9l8.6,1.6v7.8
	L83,55.5c-1.6,0.2-2.9,1.4-3.3,2.9c-0.6,2.3-1.6,4.5-2.7,6.6c-0.8,1.4-0.6,3.1,0.2,4.3l4.9,7l-5.5,5.3l-7-4.7c-1.2-1-3.1-1-4.5-0.2
	c-2,1.2-4.3,2-6.6,2.7c-1.6,0.4-2.7,1.8-2.9,3.3l-1.4,8.8H46.5z"/>
<path class="st0" d="M70.7,50.4c0-11.3-9.2-20.5-20.5-20.5l0,0c-5.5,0-10.7,2.3-14.3,6.1c-4.1,3.9-6.1,9-6.1,14.3
	c0,5.5,2.3,10.7,6.1,14.3c3.9,3.9,9,5.9,14.3,5.9l0,0C61.7,70.9,70.7,61.7,70.7,50.4z M50.2,62.7c-3.3,0-6.4-1.2-8.6-3.5
	c-2.5-2.5-3.7-5.5-3.7-8.8s1.2-6.4,3.5-8.6c2.3-2.3,5.3-3.7,8.6-3.7l0,0c6.8,0,12.3,5.5,12.3,12.3C62.5,57.2,57,62.7,50.2,62.7z"/>
</svg>
