<?xml version="1.0" encoding="utf-8"?>
<!-- Generator: Adobe Illustrator 24.3.0, SVG Export Plug-In . SVG Version: 6.00 Build 0)  -->
<svg version="1.1" id="Layer_1" xmlns="http://www.w3.org/2000/svg" xmlns:xlink="http://www.w3.org/1999/xlink" x="0px" y="0px"
	 viewBox="0 0 42.9 52.3" style="enable-background:new 0 0 42.9 52.3;" xml:space="preserve">
<style type="text/css">
	.st0{fill:#966852;}
	.st1{fill:#F1E6B8;}
	.st2{fill:#685447;}
</style>
<path class="st0" d="M28,35.9l5.2-5.8c4.5-5,5.7-12,3.1-18.2c-2.6-6.2-8.3-10.2-15-10.5c-0.6,0-1.2,0-1.8,0C12.7,1.6,7,5.7,4.4,11.9
	c-2.6,6.2-1.5,13.2,3.1,18.2l5.2,5.8c-4.8,1.3-8,3.9-8,6.8c0,4.4,6.9,7.8,15.7,7.8c8.8,0,15.7-3.5,15.7-7.8
	C36,39.8,32.8,37.2,28,35.9z"/>
<path class="st1" d="M9.1,28.4C5.2,24.1,4.1,18,6.4,12.5c2.3-5.4,7.2-8.8,13.1-9.1c0.6,0,1.1,0,1.7,0c5.9,0.3,10.8,3.7,13.1,9.1
	c2.3,5.4,1.2,11.5-2.7,15.9L20.3,40.9L9.1,28.4z"/>
<path class="st2" d="M21.4,29.3c0.6,0.9,1.6,1.4,2.6,1.4h0.4c1.1,0,2.1-0.6,2.6-1.5c0.6-0.9,0.7-2,0.2-3L25,21.4
	c-0.9-1.8-2.8-3.1-4.8-3.1c-2,0-4,1.2-4.8,3.1l-2.2,4.8c-0.4,1-0.4,2.1,0.2,3c0.6,0.9,1.6,1.5,2.6,1.5h0.4c1.1,0,2-0.5,2.6-1.4
	c0.3-0.4,0.7-0.6,1.2-0.6C20.7,28.7,21.1,28.9,21.4,29.3z"/>
<path class="st2" d="M20.2,15c1.8,0,3.4-1.5,3.4-3.4s-1.5-3.4-3.4-3.4c-1.8,0-3.4,1.5-3.4,3.4C16.9,13.5,18.4,15,20.2,15z"/>
<path class="st2" d="M14.1,17.2c0-1.8-1.5-3.4-3.4-3.4c-1.8,0-3.4,1.5-3.4,3.4c0,1.8,1.5,3.4,3.4,3.4S14.1,19.1,14.1,17.2z"/>
<path class="st2" d="M29.7,20.6c1.8,0,3.4-1.5,3.4-3.4s-1.5-3.4-3.4-3.4c-1.8,0-3.4,1.5-3.4,3.4C26.4,19.1,27.9,20.6,29.7,20.6z"/>
<image style="overflow:visible;" width="732" height="717" xlink:href="logo.png"  transform="matrix(0.1313 0 0 0.2422 -129.0871 -56.225)">
</image>
<path class="st2" d="M20.2,47.9c-7.9,0-13.4-3-13.4-5.6c0-1.9,2.9-4,7.4-5l5.1,5.7c0.2,0.2,0.5,0.4,0.8,0.4s0.6-0.1,0.8-0.4l5.1-5.7
	c4.6,1,7.4,3.1,7.4,5C33.6,44.9,28.1,47.9,20.2,47.9z"/>
</svg>
